<svg xmlns="http://www.w3.org/2000/svg" viewBox="0 0 1280 800" preserveAspectRatio="xMidYMid meet">
  <rect width="1280" height="800" fill="#0d0d0d"/>
  <rect width="1280" height="40" fill="#131313"/>
  <line x1="0" y1="40" x2="1280" y2="40" stroke="#1f1f1f"/>
  <circle cx="20" cy="20" r="6" fill="#ff5f56"/><circle cx="40" cy="20" r="6" fill="#ffbd2e"/><circle cx="60" cy="20" r="6" fill="#27c93f"/>

  <!-- Sidebar -->
  <rect x="0" y="40" width="200" height="760" fill="#131313"/>
  <line x1="200" y1="40" x2="200" y2="800" stroke="#1f1f1f"/>
  <text x="16" y="78" fill="#fff" font-family="Inter, sans-serif" font-size="14" font-weight="600">OwlScope</text>
  <g font-family="Inter, sans-serif" font-size="13">
    <text x="36" y="118" fill="#888">Home</text>
    <text x="36" y="150" fill="#888">Timeline</text>
    <text x="36" y="182" fill="#888">Logs</text>
    <text x="36" y="214" fill="#888">Network</text>
    <text x="36" y="246" fill="#888">State</text>
    <rect x="8" y="260" width="184" height="28" rx="4" fill="rgba(167,139,250,0.1)"/>
    <text x="36" y="278" fill="#a78bfa" font-weight="600">Errors</text>
    <text x="170" y="278" fill="#f87171" text-anchor="end">4</text>
    <text x="36" y="310" fill="#888">Performance</text>
  </g>

  <!-- Error rows -->
  <g font-family="JetBrains Mono, monospace" font-size="11">
    <rect x="200" y="60" width="1080" height="28" fill="rgba(248,113,113,0.08)"/>
    <line x1="200" y1="60" x2="200" y2="88" stroke="#f87171" stroke-width="2"/>
    <text x="216" y="78" fill="#888">17:18:33.364</text>
    <text x="316" y="78" fill="#f87171">error</text>
    <text x="416" y="78" fill="#f87171">type 'String' is not a subtype of type 'num?' in type cast</text>

    <text x="216" y="118" fill="#888">17:18:33.301</text>
    <text x="316" y="118" fill="#f87171">error</text>
    <text x="416" y="118" fill="#f87171">FailureHandler: type 'Null' is not a subtype of type 'Map'</text>

    <text x="216" y="158" fill="#888">17:18:32.844</text>
    <text x="316" y="158" fill="#f87171">error</text>
    <text x="416" y="158" fill="#f87171">DioException [bad response]: status 500</text>

    <text x="216" y="198" fill="#888">17:18:31.119</text>
    <text x="316" y="198" fill="#f87171">error</text>
    <text x="416" y="198" fill="#f87171">RangeError (length): Invalid value: Only valid value is 0</text>
  </g>

  <!-- Inline detail of selected error -->
  <rect x="200" y="100" width="1080" height="600" fill="#0a0a0a" stroke="#1f1f1f"/>
  <g font-family="Inter, sans-serif" font-size="11">
    <text x="216" y="120" fill="#888">time</text>
    <text x="252" y="120" fill="#e5e5e5" font-family="JetBrains Mono, monospace">2026-05-07T14:18:33.364Z</text>
    <text x="476" y="120" fill="#888">source</text>
    <text x="520" y="120" fill="#e5e5e5">elan_az · android</text>
    <text x="700" y="120" fill="#888">client</text>
    <text x="744" y="120" fill="#e5e5e5" font-family="JetBrains Mono, monospace">c365c738</text>
    <rect x="1180" y="108" width="80" height="20" rx="4" fill="#1a1a1a" stroke="#2a2a2a"/>
    <text x="1220" y="121" fill="#888" text-anchor="middle" font-size="10">Copy JSON</text>
  </g>

  <!-- JSON tree of error payload -->
  <g font-family="JetBrains Mono, monospace" font-size="12">
    <text x="216" y="155" fill="#888">{</text>
    <text x="232" y="180" fill="#fbbf24">"message"</text>
    <text x="316" y="180" fill="#888">:</text>
    <text x="328" y="180" fill="#4ade80">"type 'String' is not a subtype of type 'num?' in type cast"</text>
    <text x="232" y="205" fill="#fbbf24">"provider"</text>
    <text x="316" y="205" fill="#888">: {</text>
    <text x="248" y="230" fill="#fbbf24">"name"</text>
    <text x="296" y="230" fill="#888">:</text>
    <text x="308" y="230" fill="#4ade80">"AsyncNotifierProvider&lt;AdsMultilistNotifier, …&gt;"</text>
    <text x="248" y="255" fill="#fbbf24">"argument"</text>
    <text x="328" y="255" fill="#888">:</text>
    <text x="340" y="255" fill="#4ade80">"AdTab.realEstate"</text>
    <text x="248" y="280" fill="#fbbf24">"family"</text>
    <text x="312" y="280" fill="#888">:</text>
    <text x="324" y="280" fill="#4ade80">"AsyncNotifierProviderFamily&lt;…&gt;"</text>
    <text x="232" y="305" fill="#888">}</text>
    <text x="216" y="330" fill="#888">}</text>

    <text x="216" y="370" fill="#888" font-family="Inter,sans-serif" font-size="10" letter-spacing="0.06em">STACK</text>
  </g>
  <g font-family="JetBrains Mono, monospace" font-size="11" fill="#888">
    <text x="216" y="395">#0  FailureHandler.handle  (package:elan_az/src/core/error/handler.dart:42:11)</text>
    <text x="216" y="415">#1  AdsRepository.getMultilist  (package:elan_az/src/data/repositories/ads_repo.dart:21:55)</text>
    <text x="216" y="435">#2  _$AppResponseModelFromJson  (package:elan_az/.../app_response_model.g.dart:17:9)</text>
    <text x="216" y="455">#3  AsyncValue.guard  (package:riverpod/src/core/async_value.dart:523:30)</text>
  </g>
</svg>
