<svg xmlns="http://www.w3.org/2000/svg" viewBox="0 0 1280 800" preserveAspectRatio="xMidYMid meet">
  <defs>
    <linearGradient id="lp-bg" x1="0" y1="0" x2="0" y2="1">
      <stop offset="0" stop-color="#0d0d0d"/>
      <stop offset="1" stop-color="#0a0815"/>
    </linearGradient>
  </defs>
  <rect width="1280" height="800" fill="url(#lp-bg)"/>
  <!-- Title bar -->
  <rect width="1280" height="40" fill="#131313"/>
  <line x1="0" y1="40" x2="1280" y2="40" stroke="#1f1f1f"/>
  <circle cx="20" cy="20" r="6" fill="#ff5f56"/>
  <circle cx="40" cy="20" r="6" fill="#ffbd2e"/>
  <circle cx="60" cy="20" r="6" fill="#27c93f"/>
  <text x="640" y="25" fill="#888" font-family="Inter, sans-serif" font-size="12" text-anchor="middle">elan_az · android</text>
  <circle cx="1230" cy="20" r="3" fill="#4ade80"/>
  <text x="1240" y="24" fill="#888" font-family="JetBrains Mono, monospace" font-size="11">ws://localhost:9090</text>

  <!-- Sidebar -->
  <rect x="0" y="40" width="200" height="760" fill="#131313"/>
  <line x1="200" y1="40" x2="200" y2="800" stroke="#1f1f1f"/>
  <text x="16" y="78" fill="#fff" font-family="Inter, sans-serif" font-size="14" font-weight="600">OwlScope</text>
  <g font-family="Inter, sans-serif" font-size="13">
    <rect x="8" y="100" width="184" height="28" rx="4" fill="transparent"/>
    <text x="36" y="118" fill="#888">Home</text>
    <rect x="8" y="132" width="184" height="28" rx="4" fill="rgba(167,139,250,0.1)"/>
    <text x="36" y="150" fill="#a78bfa" font-weight="500">Timeline</text>
    <rect x="8" y="164" width="184" height="28" rx="4" fill="transparent"/>
    <text x="36" y="182" fill="#a78bfa" font-weight="600">Logs</text>
    <text x="170" y="182" fill="#888" text-anchor="end">534</text>
    <text x="36" y="214" fill="#888">Network</text>
    <text x="170" y="214" fill="#888" text-anchor="end">5</text>
    <text x="36" y="246" fill="#888">State</text>
    <text x="36" y="278" fill="#888">Errors</text>
    <text x="36" y="310" fill="#888">Performance</text>
  </g>

  <!-- Toolbar -->
  <rect x="200" y="40" width="1080" height="44" fill="#131313"/>
  <line x1="200" y1="84" x2="1280" y2="84" stroke="#1f1f1f"/>
  <rect x="216" y="52" width="280" height="24" rx="4" fill="#1a1a1a" stroke="#2a2a2a"/>
  <text x="232" y="68" fill="#555" font-family="Inter, sans-serif" font-size="11">Search…</text>

  <!-- Log rows -->
  <g font-family="JetBrains Mono, monospace" font-size="11">
    <text x="216" y="115" fill="#888">17:18:33.390</text>
    <text x="316" y="115" fill="#2dd4bf">state:change</text>
    <text x="416" y="115" fill="#e5e5e5">AsyncNotifierProvider&lt;AdsMultilistNotifier&gt; loaded</text>

    <rect x="200" y="124" width="1080" height="22" fill="rgba(167,139,250,0.06)"/>
    <text x="216" y="140" fill="#888">17:18:33.388</text>
    <text x="316" y="140" fill="#888">console</text>
    <text x="416" y="140" fill="#888">log</text>
    <text x="476" y="140" fill="#e5e5e5">#0 DioLoggingInterceptor.onResponse (package:elan_az/...dio_logger.dart:18:13)</text>

    <text x="216" y="165" fill="#888">17:18:33.387</text>
    <text x="316" y="165" fill="#888">console</text>
    <text x="416" y="165" fill="#888">log</text>
    <text x="476" y="165" fill="#e5e5e5">#19 AdsMultilistNotifier.getMultilist (package:elan_az/.../ads_notifier.dart:23:13)</text>

    <text x="216" y="190" fill="#888">17:18:33.385</text>
    <text x="316" y="190" fill="#888">console</text>
    <text x="416" y="190" fill="#888">log</text>
    <text x="476" y="190" fill="#e5e5e5">#18 AsyncValue.guard (package:riverpod/.../async_value.dart:523:30)</text>

    <text x="216" y="215" fill="#888">17:18:33.380</text>
    <text x="316" y="215" fill="#888">console</text>
    <text x="416" y="215" fill="#888">log</text>
    <text x="476" y="215" fill="#e5e5e5">#16 new AppResponseModel.fromJson (package:elan_az/.../app_response_model.dart:21:7)</text>

    <text x="216" y="240" fill="#888">17:18:33.378</text>
    <text x="316" y="240" fill="#888">console</text>
    <text x="416" y="240" fill="#888">log</text>
    <text x="476" y="240" fill="#e5e5e5">#10 ListIterable.toList (dart:_internal/iterable.dart:224:7)</text>

    <text x="216" y="265" fill="#888">17:18:33.376</text>
    <text x="316" y="265" fill="#888">console</text>
    <text x="416" y="265" fill="#888">log</text>
    <text x="476" y="265" fill="#e5e5e5">#9 new List.of (dart:core-patch/array_patch.dart:39:18)</text>

    <text x="216" y="290" fill="#888">17:18:33.371</text>
    <text x="316" y="290" fill="#fbbf24">warn</text>
    <text x="416" y="290" fill="#fbbf24">warn</text>
    <text x="476" y="290" fill="#fbbf24">tolerantPrettifyJson skipped — body &gt; 1MB</text>

    <text x="216" y="315" fill="#888">17:18:33.364</text>
    <text x="316" y="315" fill="#f87171">error</text>
    <text x="416" y="315" fill="#f87171">error</text>
    <text x="476" y="315" fill="#f87171">FailureHandler: type 'String' is not a subtype of type 'num?'</text>
  </g>

  <!-- Status bar -->
  <rect x="200" y="773" width="1080" height="27" fill="#131313"/>
  <line x1="200" y1="773" x2="1280" y2="773" stroke="#1f1f1f"/>
  <text x="216" y="790" fill="#888" font-family="Inter, sans-serif" font-size="11">534 events · 5 requests · 1 client</text>
  <text x="1264" y="790" fill="#888" font-family="Inter, sans-serif" font-size="11" text-anchor="end">OwlScope v0.1.0</text>
</svg>
