<svg xmlns="http://www.w3.org/2000/svg" viewBox="0 0 1200 630" width="1200" height="630">
  <defs>
    <linearGradient id="bg" x1="0" y1="0" x2="1200" y2="630" gradientUnits="userSpaceOnUse">
      <stop offset="0" stop-color="#0d0d0d" />
      <stop offset="1" stop-color="#1a1338" />
    </linearGradient>
    <radialGradient id="glow" cx="950" cy="120" r="450" gradientUnits="userSpaceOnUse">
      <stop offset="0" stop-color="#a78bfa" stop-opacity="0.35" />
      <stop offset="1" stop-color="#a78bfa" stop-opacity="0" />
    </radialGradient>
  </defs>
  <rect width="1200" height="630" fill="url(#bg)" />
  <rect width="1200" height="630" fill="url(#glow)" />

  <g transform="translate(96 220)">
    <rect width="180" height="180" rx="36" fill="#a78bfa" />
    <path d="M90 36c-26 0-47 21-47 47 0 13 5 24 13 33L36 156l27-5 12 22 15-26 15 26 12-22 27 5-20-40c8-9 13-20 13-33 0-26-21-47-47-47z" fill="#0d0d0d" />
    <circle cx="74" cy="86" r="11" fill="#a78bfa" />
    <circle cx="106" cy="86" r="11" fill="#a78bfa" />
    <circle cx="74" cy="86" r="4" fill="#fff" />
    <circle cx="106" cy="86" r="4" fill="#fff" />
  </g>

  <text x="320" y="320" fill="#fff" font-family="Inter, sans-serif" font-size="78" font-weight="600" letter-spacing="-3">OwlScope</text>
  <text x="320" y="380" fill="#a78bfa" font-family="JetBrains Mono, monospace" font-size="26" letter-spacing="-0.5">{ debug.everything }</text>
  <text x="320" y="440" fill="#c4c4c4" font-family="Inter, sans-serif" font-size="28" letter-spacing="-0.5">Universal debug &amp; monitoring tool</text>
  <text x="320" y="478" fill="#888" font-family="Inter, sans-serif" font-size="22">JavaScript · TypeScript · Flutter · React Native</text>
</svg>
